<?xml version="1.0" encoding="utf-8"?>
<!-- Generator: Adobe Illustrator 16.0.0, SVG Export Plug-In . SVG Version: 6.00 Build 0)  -->
<!DOCTYPE svg PUBLIC "-//W3C//DTD SVG 1.1//EN" "http://www.w3.org/Graphics/SVG/1.1/DTD/svg11.dtd">
<svg version="1.1" xmlns="http://www.w3.org/2000/svg" xmlns:xlink="http://www.w3.org/1999/xlink" x="0px" y="0px"
	 width="115.378px" height="93.113px" viewBox="0 0 115.378 93.113" enable-background="new 0 0 115.378 93.113"
	 xml:space="preserve">
<g id="background">
	<rect x="-336.883" y="-288.025" fill="#2B2054" width="500" height="500"/>
</g>
<g id="objects">
	<g>
		<path fill="#FFB0D0" d="M101.32,4.674C100.066,2.104,96.697,0,93.836,0H62.891c-2.861,0-7.545,0-10.406,0H21.541
			c-2.861,0-6.23,2.104-7.484,4.674L0.643,32.16c-1.256,2.572-0.613,6.316,1.424,8.324L53.98,91.607
			c2.039,2.008,5.375,2.008,7.414,0l51.916-51.123c2.039-2.008,2.68-5.752,1.424-8.324L101.32,4.674z"/>
		<g>
			<path fill="#FEF8A6" d="M88.002,13.715c-3.217-3.031-6.441-6.051-9.746-8.977c-0.139-0.123-0.279-0.246-0.42-0.367L25.729,42.045
				l7.924,10.963L88.002,13.715z"/>
		</g>
		<g>
			<path fill="#FEF8A6" d="M96.748,21.902c-1.197-1.098-2.383-2.209-3.57-3.32l-60.625,43.83l3.049,4.215l61.459-44.434
				C96.955,22.098,96.852,22,96.748,21.902z"/>
		</g>
		<path fill="#ED5F91" d="M115.012,37.547c0.545-1.791,0.494-3.809-0.277-5.387L101.32,4.674c-0.615-1.262-1.744-2.408-3.07-3.252
			L86.086,36.668L115.012,37.547z"/>
		<path fill="#ED5F91" d="M29.289,36.668L57.688,0c-1.885,0-3.771,0-5.203,0H21.541C20,0,18.322,0.621,16.898,1.586L29.289,36.668z"
			/>
		<path fill="#FF82AF" d="M98.479,1.586C97.053,0.619,95.377,0,93.836,0H62.891c-1.432,0-3.316,0-5.203,0l28.398,36.668
			L98.479,1.586z"/>
		<path fill="#DC4B7F" d="M17.051,1.475c-1.291,0.84-2.391,1.961-2.994,3.199L0.643,32.16c-0.678,1.387-0.787,3.109-0.439,4.725
			l29.445,0.775L17.051,1.475z"/>
		<path fill="#0074C2" fill-opacity="0.1" d="M17.051,1.475c-1.291,0.84-2.391,1.961-2.994,3.199L0.643,32.16
			c-0.678,1.387-0.787,3.109-0.439,4.725l29.445,0.775L17.051,1.475z"/>
		<path fill="#ED5A9F" d="M2.066,40.484L53.98,91.607c0.74,0.727,1.652,1.182,2.609,1.383L29.289,36.668H0.152
			C0.428,38.127,1.078,39.512,2.066,40.484z"/>
		<path fill="#DC4B7F" d="M58.787,92.99c0.957-0.201,1.867-0.656,2.607-1.383l51.916-51.123c0.988-0.973,1.641-2.357,1.914-3.816
			H86.086L58.787,92.99z"/>
		<path fill="#0074C2" fill-opacity="0.1" d="M58.787,92.99c0.957-0.201,1.867-0.656,2.607-1.383l51.916-51.123
			c0.988-0.973,1.641-2.357,1.914-3.816H86.086L58.787,92.99z"/>
		<path fill="#FF7AB1" d="M29.289,36.668L56.59,92.99c0.725,0.15,1.473,0.15,2.197,0l27.299-56.322H29.289z"/>
		<path fill="#FFFFFF" d="M31.221,20.17c-5.053,1.641-6.377,2.969-8.016,8.023c-1.639-5.051-2.969-6.379-8.023-8.018
			c5.053-1.639,6.383-2.963,8.018-8.016C24.842,17.213,26.168,18.535,31.221,20.17z"/>
		<path fill="#FFFFFF" d="M44.959,8.719c-2.744,0.891-3.463,1.613-4.352,4.354c-0.891-2.74-1.613-3.461-4.355-4.35
			c2.742-0.891,3.463-1.609,4.352-4.352C41.494,7.113,42.215,7.832,44.959,8.719z"/>
		<path fill="#FFFFFF" d="M47.029,59.463c-2.744,0.891-3.463,1.611-4.352,4.355c-0.891-2.74-1.613-3.463-4.355-4.354
			c2.742-0.887,3.463-1.607,4.352-4.35C43.564,57.857,44.285,58.576,47.029,59.463z"/>
	</g>
</g>
<!-- <g id="designed_by_freepik"> -->
</g>
</svg>
