<?xml version="1.0" encoding="utf-8"?>
<!-- Generator: Adobe Illustrator 16.0.0, SVG Export Plug-In . SVG Version: 6.00 Build 0)  -->
<!DOCTYPE svg PUBLIC "-//W3C//DTD SVG 1.1//EN" "http://www.w3.org/Graphics/SVG/1.1/DTD/svg11.dtd">
<svg version="1.1" xmlns="http://www.w3.org/2000/svg" xmlns:xlink="http://www.w3.org/1999/xlink" x="0px" y="0px"
	 width="83.246px" height="107.096px" viewBox="0 0 83.246 107.096" enable-background="new 0 0 83.246 107.096"
	 xml:space="preserve">
<g id="background">
	<rect x="-359.615" y="-99.948" fill="#2B2054" width="500" height="500"/>
</g>
<g id="objects">
	<g>
		<g>
			<path fill="#24AE94" d="M79.934,87.183c1.822-1.822,3.312-5.42,3.312-7.997V27.91c0-2.577-1.49-6.174-3.312-7.997l-16.6-16.601
				C61.512,1.491,57.914,0,55.336,0h-23.24C29.52,0,25.92,1.491,24.1,3.312L7.498,19.914c-1.822,1.821-3.312,5.42-3.312,7.997
				v51.274c0,2.577,1.49,6.176,3.312,7.997L24.1,103.784c1.82,1.822,5.42,3.312,7.996,3.312h23.24c2.578,0,6.176-1.491,7.998-3.312
				L79.934,87.183z"/>
			<path fill="#188989" d="M21.92,77.551V30.237L5.369,23.172c-0.717,1.578-1.184,3.312-1.184,4.739v51.274
				c0,2.085,0.982,4.825,2.322,6.766L21.92,77.551z"/>
			<path fill="#3AC1B0" d="M55.338,0L32.084,0.001c-1.316,0.001-2.896,0.394-4.369,1.018L33.838,15.8l0.871,2.691l18.037-1.84
				l0.85-0.851l6.123-14.783C58.24,0.393,56.656,0.001,55.338,0z"/>
			<path fill="#41D9C6" d="M32.084,107.095l23.254,0.001c1.318-0.001,2.902-0.394,4.381-1.019l-6.123-14.783l-0.85-0.851
				l-18.037-1.84l-0.871,2.692l-6.123,14.781C29.188,106.701,30.768,107.094,32.084,107.095z"/>
			<path fill="#24AE94" d="M24.1,3.312l-8.301,8.302l-8.301,8.3c-0.91,0.911-1.738,2.265-2.34,3.714l14.828,6.143l2.52,1.286
				l11.451-14.055v-1.201L27.814,0.972C26.365,1.573,25.012,2.401,24.1,3.312z"/>
			<path fill="#3AC1B0" d="M19.986,77.326L5.158,83.467c0.602,1.45,1.43,2.803,2.34,3.715l8.301,8.3l8.301,8.303
				c0.912,0.91,2.266,1.738,3.715,2.339l6.143-14.829v-1.201L22.506,76.039L19.986,77.326z"/>
			<path fill="#60E9CF" d="M79.947,19.926L63.324,3.304c-0.91-0.907-2.262-1.733-3.707-2.332l-6.143,14.829v1.201l11.451,14.055
				l2.52-1.286l14.828-6.143C81.676,22.185,80.854,20.837,79.947,19.926z"/>
			<path fill="#188989" d="M63.324,103.792l16.623-16.622c0.906-0.911,1.729-2.259,2.326-3.703l-14.828-6.141l-2.52-1.287
				L53.475,90.094v1.201l6.143,14.829C61.062,105.525,62.414,104.699,63.324,103.792z"/>
			<polygon fill="#69FFE3" points="33.957,91.295 19.986,77.326 19.986,29.771 33.957,15.801 53.477,15.801 67.445,29.77 
				67.445,77.327 53.477,91.295 			"/>
			<g>
				<polygon fill="#F2FFFD" points="67.445,32.213 19.986,66.524 19.986,77.326 23.404,80.745 67.445,48.904 				"/>
				<polygon fill="#F2FFFD" points="67.445,63.935 67.445,57.515 28.402,85.742 32.129,89.467 				"/>
			</g>
		</g>
		<path fill="#FFFFFF" d="M16.039,32.207c-5.053,1.641-6.379,2.97-8.016,8.022C6.383,35.18,5.053,33.852,0,32.212
			c5.053-1.638,6.381-2.963,8.018-8.014C9.658,29.249,10.984,30.574,16.039,32.207z"/>
		<path fill="#FFFFFF" d="M23.91,18.818c-2.742,0.891-3.461,1.612-4.35,4.355c-0.891-2.741-1.613-3.463-4.355-4.353
			c2.742-0.888,3.463-1.607,4.352-4.35C20.447,17.212,21.168,17.931,23.91,18.818z"/>
		<path fill="#FFFFFF" d="M78.023,79.947c-2.742,0.891-3.463,1.612-4.352,4.355c-0.891-2.742-1.613-3.462-4.355-4.352
			c2.742-0.89,3.465-1.609,4.352-4.351C74.559,78.341,75.279,79.06,78.023,79.947z"/>
	</g>
</g>
<!-- <g id="designed_by_freepik"> -->
</g>
</svg>
