<?xml version="1.0" encoding="utf-8"?>
<!-- Generator: Adobe Illustrator 16.0.0, SVG Export Plug-In . SVG Version: 6.00 Build 0)  -->
<!DOCTYPE svg PUBLIC "-//W3C//DTD SVG 1.1//EN" "http://www.w3.org/Graphics/SVG/1.1/DTD/svg11.dtd">
<svg version="1.1" xmlns="http://www.w3.org/2000/svg" xmlns:xlink="http://www.w3.org/1999/xlink" x="0px" y="0px"
	 width="101.57px" height="101.57px" viewBox="0 0 101.57 101.57" enable-background="new 0 0 101.57 101.57" xml:space="preserve">
<g id="background">
	<rect x="-47.74" y="-283.797" fill="#2B2054" width="500" height="500"/>
</g>
<g id="objects">
	<g>
		<path fill="#79E8DD" d="M37.965,21.156H63.01l8.459-20.303C70.195,0.326,68.84,0,67.709,0h-33.85
			c-1.129,0-2.484,0.324-3.756,0.854L37.965,21.156z"/>
		<path fill="#55ABE0" d="M21.52,38.65l17.037-17.234L30.104,0.854c-1.273,0.527-2.461,1.252-3.26,2.053L2.904,26.842
			c-0.799,0.799-1.525,1.988-2.053,3.262L21.52,38.65z"/>
		<path fill="#4BA6EB" d="M0.852,71.467c0.527,1.266,1.25,2.453,2.049,3.254L26.85,98.67c0.799,0.795,1.984,1.52,3.254,2.047
			l8.16-19.703L20.555,63.305L0.852,71.467z"/>
		<path fill="#6CD9FF" d="M80.625,37.875l-0.197,26.016l20.289,7.576c0.525-1.27,0.854-2.627,0.854-3.758V33.861
			c0-1.131-0.326-2.486-0.854-3.76L80.625,37.875z"/>
		<path fill="#CAFDFF" d="M63.01,20.555l18.006,17.709l19.701-8.16c-0.527-1.271-1.252-2.463-2.053-3.262L74.727,2.906
			c-0.799-0.799-1.988-1.525-3.258-2.053L63.01,20.555z"/>
		<path fill="#87DCFF" d="M0,33.848v33.875c0.002,1.127,0.328,2.477,0.854,3.744l19.701-8.16V38.262L0.854,30.1
			C0.328,31.369,0.002,32.719,0,33.848z"/>
		<path fill="#328CC4" d="M33.848,101.57h33.873c1.129-0.002,2.479-0.33,3.748-0.854l-8.654-20.709H38.752l-8.65,20.709
			C31.369,101.24,32.721,101.568,33.848,101.57z"/>
		<path fill="#64E8DB" d="M80.416,63.059L62.814,80.008l8.654,20.709c1.27-0.527,2.459-1.254,3.258-2.053l23.938-23.938
			c0.801-0.801,1.525-1.988,2.053-3.262L80.416,63.059z"/>
		<polygon fill="#99FFF7" points="38.264,81.014 20.555,63.307 20.555,38.264 38.264,20.555 63.305,20.555 81.014,38.264 
			81.014,63.307 63.305,81.014 		"/>
		<g>
			<polygon fill="#FFFFFF" points="33.295,76.045 81.014,41.547 81.014,38.264 73.232,30.482 23.607,66.357 			"/>
			<polygon fill="#FFFFFF" points="81.014,56.578 81.014,50.158 38.33,81.014 47.211,81.014 			"/>
		</g>
		<path fill="#FFFFFF" d="M23.719,26.945c-4.658,1.516-5.883,2.74-7.393,7.4c-1.512-4.658-2.738-5.881-7.4-7.395
			c4.66-1.512,5.885-2.734,7.396-7.393C17.834,24.217,19.059,25.439,23.719,26.945z"/>
		<path fill="#FFFFFF" d="M14.293,44.107c-2.529,0.822-3.193,1.488-4.014,4.018c-0.82-2.529-1.486-3.193-4.016-4.016
			c2.529-0.818,3.193-1.482,4.014-4.012C11.1,42.627,11.764,43.289,14.293,44.107z"/>
		<path fill="#FFFFFF" d="M91,73.242c-2.529,0.82-3.195,1.486-4.014,4.018c-0.822-2.531-1.488-3.195-4.018-4.016
			c2.529-0.82,3.195-1.484,4.016-4.012C87.805,71.76,88.469,72.422,91,73.242z"/>
	</g>
</g>
<!-- <g id="designed_by_freepik"> -->
</g>
</svg>
