<?xml version="1.0" encoding="utf-8"?>
<!-- Generator: Adobe Illustrator 16.0.0, SVG Export Plug-In . SVG Version: 6.00 Build 0)  -->
<!DOCTYPE svg PUBLIC "-//W3C//DTD SVG 1.1//EN" "http://www.w3.org/Graphics/SVG/1.1/DTD/svg11.dtd">
<svg version="1.1" xmlns="http://www.w3.org/2000/svg" xmlns:xlink="http://www.w3.org/1999/xlink" x="0px" y="0px"
	 width="108.364px" height="108.365px" viewBox="0 0 108.364 108.365" enable-background="new 0 0 108.364 108.365"
	 xml:space="preserve">
<g id="background">
	<rect x="-194.195" y="-99.314" fill="#2B2054" width="500" height="500"/>
</g>
<g id="objects">
	<g>
		<path fill="#BE75FF" d="M107.411,51.878c1.27,1.271,1.27,3.334,0,4.607L56.487,107.41c-1.273,1.273-3.338,1.273-4.607,0.001
			L0.954,56.487c-1.271-1.274-1.271-3.336,0-4.609L51.882,0.954c1.27-1.271,3.332-1.272,4.605,0L107.411,51.878z"/>
		<path fill="#FEB9EB" d="M86.227,30.695L28.674,72.303l-3.305-4.57l56.818-41.078L86.227,30.695z M76.77,21.237L66.268,10.735
			L17.969,45.651l8.592,11.884L76.77,21.237z"/>
		<path fill="#A061FF" d="M28.75,84.283l23.129,23.127c1.27,1.272,3.334,1.272,4.607-0.001L89.174,74.72l7.699-20.538H14.245
			L28.75,84.283z"/>
		<path fill="#9F48FF" d="M52.466,0.498c-0.207,0.129-0.406,0.276-0.584,0.456L0.954,51.878C0.317,52.514,0,53.349,0,54.183h35.113
			L52.466,0.498z"/>
		<path fill="#D783EB" d="M73.249,54.183h35.115c0-0.834-0.318-1.668-0.953-2.304L56.487,0.954c-0.182-0.181-0.383-0.329-0.59-0.458
			L73.249,54.183z"/>
		<path fill="#8B38D6" d="M51.88,107.411c0.18,0.181,0.379,0.328,0.588,0.458L35.114,54.183H0c0,0.833,0.316,1.667,0.953,2.305
			L51.88,107.411z"/>
		<path fill="#8536CD" d="M73.249,54.183l-17.351,53.686c0.209-0.129,0.408-0.277,0.59-0.458l50.923-50.924
			c0.635-0.635,0.953-1.469,0.953-2.303H73.249z"/>
		<path fill="#FFFFFF" d="M35.114,26.098c-5.053,1.641-6.377,2.969-8.016,8.022c-1.639-5.049-2.969-6.377-8.021-8.017
			c5.051-1.638,6.379-2.963,8.016-8.014C28.733,23.14,30.061,24.464,35.114,26.098z"/>
		<path fill="#FFFFFF" d="M44.42,37.946c-2.742,0.891-3.463,1.611-4.352,4.355c-0.889-2.742-1.611-3.463-4.354-4.353
			c2.74-0.889,3.463-1.608,4.352-4.35C40.956,36.339,41.676,37.059,44.42,37.946z"/>
	</g>
</g>
<!-- <g id="designed_by_freepik"> -->
</g>
</svg>
