<?xml version="1.0" encoding="utf-8"?>
<!-- Generator: Adobe Illustrator 16.0.0, SVG Export Plug-In . SVG Version: 6.00 Build 0)  -->
<!DOCTYPE svg PUBLIC "-//W3C//DTD SVG 1.1//EN" "http://www.w3.org/Graphics/SVG/1.1/DTD/svg11.dtd">
<svg version="1.1" xmlns="http://www.w3.org/2000/svg" xmlns:xlink="http://www.w3.org/1999/xlink" x="0px" y="0px"
	 width="70.297px" height="116.328px" viewBox="0 0 70.297 116.328" enable-background="new 0 0 70.297 116.328"
	 xml:space="preserve">
<g id="background">
	<rect x="-63.377" y="-95.332" fill="#2B2054" width="500" height="500"/>
</g>
<g id="objects">
	<g>
		<path fill="#8CC63F" d="M37.994,1.298c-1.564-1.73-4.125-1.73-5.689,0L2.846,33.879C1.279,35.61,0,38.934,0,41.267V75.06
			c0,2.333,1.279,5.657,2.846,7.388l29.459,32.581c1.564,1.731,4.125,1.731,5.689,0l29.459-32.581
			c1.564-1.731,2.844-5.055,2.844-7.388V41.267c0-2.333-1.279-5.657-2.844-7.388L37.994,1.298z"/>
		<path fill="#62C765" d="M2.029,34.979C0.863,36.799,0,39.359,0,41.267V75.06c0,2.333,1.279,5.657,2.846,7.388l1.186,1.311
			c8.168-3.49,17.191-7.457,18.111-7.806c1.711-0.648,0-31.6,0-31.6L2.029,34.979z"/>
		<path fill="#55B034" d="M2.846,33.879c-0.824,0.912-1.564,2.266-2.084,3.684l20.385,7.576L35.15,27.527V0
			c-1.031,0-2.064,0.433-2.846,1.297L2.846,33.879z"/>
		<path fill="#C2E070" d="M49.361,45.138l20.174-7.576c-0.52-1.417-1.258-2.772-2.082-3.684L37.994,1.298
			C37.213,0.434,36.182,0,35.15,0v27.527L49.361,45.138z"/>
		<path fill="#269468" d="M20.871,71.217L0.883,79.091c0.512,1.296,1.201,2.516,1.963,3.357l29.459,32.581
			c0.781,0.866,1.814,1.298,2.846,1.298V89.173L20.871,71.217z"/>
		<path fill="#69C97D" d="M67.453,82.448c0.76-0.841,1.449-2.061,1.961-3.358l-19.986-7.873L35.15,89.173v27.155
			c1.031,0,2.062-0.433,2.844-1.298L67.453,82.448z"/>
		<polygon fill="#E2ED7A" points="16.967,72.768 16.967,43.56 35.15,23.45 53.332,43.56 53.332,72.768 35.15,92.878 		"/>
		<path fill="#FFFFFF" d="M16.967,62.024l32.086-23.197l4.279,4.733v5.782L18.533,74.5l-1.566-1.732V62.024z M53.332,61.596v-5.234
			L22.371,78.746l2.861,3.165L53.332,61.596z"/>
		<path fill="#FFFFFF" d="M26.611,30.837c-4.66,1.514-5.883,2.739-7.393,7.4c-1.514-4.658-2.74-5.883-7.4-7.395
			c4.66-1.511,5.885-2.733,7.395-7.392C20.727,28.109,21.951,29.33,26.611,30.837z"/>
		<path fill="#FFFFFF" d="M11.818,40.141c-2.529,0.822-3.193,1.488-4.014,4.018c-0.82-2.529-1.486-3.193-4.018-4.015
			c2.529-0.82,3.195-1.483,4.016-4.012C8.623,38.661,9.287,39.323,11.818,40.141z"/>
	</g>
</g>
<!-- <g id="designed_by_freepik"> -->
</g>
</svg>
