<?xml version="1.0" encoding="utf-8"?>
<!-- Generator: Adobe Illustrator 16.0.0, SVG Export Plug-In . SVG Version: 6.00 Build 0)  -->
<!DOCTYPE svg PUBLIC "-//W3C//DTD SVG 1.1//EN" "http://www.w3.org/Graphics/SVG/1.1/DTD/svg11.dtd">
<svg version="1.1" xmlns="http://www.w3.org/2000/svg" xmlns:xlink="http://www.w3.org/1999/xlink" x="0px" y="0px"
	 width="119.362px" height="104.174px" viewBox="0 0 119.362 104.174" enable-background="new 0 0 119.362 104.174"
	 xml:space="preserve">
<g id="background">
	<rect x="-188.696" y="-282.494" fill="#2B2054" width="500" height="500"/>
</g>
<g id="objects">
	<g>
		<path fill="#FFC551" d="M3.212,104.174c-2.861,0-4.033-2.027-2.602-4.506L57.08,1.859c1.432-2.479,3.771-2.479,5.203,0
			l56.468,97.809c1.43,2.479,0.26,4.506-2.602,4.506H3.212z"/>
		<path opacity="0.5" fill="#ED861F" d="M59.682,46.799V0c-0.943,0-1.887,0.619-2.602,1.859L28.845,50.764L0.611,99.668
			c-0.715,1.238-0.781,2.365-0.309,3.182l30.146-17.404L59.682,46.799z"/>
		<path opacity="0.5" fill="#C62100" d="M88.916,85.443L40.83,79.449l-40.527,23.4c0.471,0.816,1.479,1.324,2.908,1.324
			l112.961-0.002c1.42-0.004,2.42-0.51,2.891-1.324L88.916,85.443z"/>
		<polygon fill="#FCE221" points="30.449,85.445 59.682,34.811 88.914,85.445 		"/>
		<g>
			<polygon fill="#FFFFFF" points="76.535,64.004 69.736,52.229 35.218,77.184 30.449,85.445 46.876,85.445 			"/>
			<polygon fill="#FFFFFF" points="82.658,74.607 80.042,70.078 58.787,85.445 67.666,85.445 			"/>
		</g>
		<path fill="#FFFFFF" d="M32.8,54.65c-4.658,1.516-5.883,2.74-7.393,7.4c-1.512-4.658-2.738-5.881-7.4-7.395
			c4.66-1.512,5.887-2.732,7.396-7.393C26.916,51.924,28.14,53.145,32.8,54.65z"/>
		<path fill="#FFFFFF" d="M38.478,67.674c-2.529,0.822-3.193,1.486-4.014,4.018c-0.82-2.529-1.486-3.193-4.016-4.016
			c2.527-0.82,3.193-1.482,4.014-4.012C35.283,66.193,35.949,66.855,38.478,67.674z"/>
		<path fill="#FFFFFF" d="M53.492,94.127c-2.529,0.82-3.193,1.486-4.014,4.016c-0.82-2.529-1.486-3.193-4.016-4.014
			c2.529-0.82,3.193-1.484,4.014-4.014C50.296,92.645,50.962,93.307,53.492,94.127z"/>
	</g>
</g>
<!-- <g id="designed_by_freepik"> -->
</g>
</svg>
